<?xml version="1.0" standalone="no"?><svg xmlns="http://www.w3.org/2000/svg" viewBox="0 0 1440 320"><path fill="#ff5500" fill-opacity="1" d="M0,96L0,64L68.6,64L68.6,224L137.1,224L137.1,288L205.7,288L205.7,96L274.3,96L274.3,256L342.9,256L342.9,256L411.4,256L411.4,128L480,128L480,96L548.6,96L548.6,288L617.1,288L617.1,128L685.7,128L685.7,320L754.3,320L754.3,192L822.9,192L822.9,96L891.4,96L891.4,32L960,32L960,96L1028.6,96L1028.6,160L1097.1,160L1097.1,256L1165.7,256L1165.7,224L1234.3,224L1234.3,32L1302.9,32L1302.9,320L1371.4,320L1371.4,96L1440,96L1440,320L1371.4,320L1371.4,320L1302.9,320L1302.9,320L1234.3,320L1234.3,320L1165.7,320L1165.7,320L1097.1,320L1097.1,320L1028.6,320L1028.6,320L960,320L960,320L891.4,320L891.4,320L822.9,320L822.9,320L754.3,320L754.3,320L685.7,320L685.7,320L617.1,320L617.1,320L548.6,320L548.6,320L480,320L480,320L411.4,320L411.4,320L342.9,320L342.9,320L274.3,320L274.3,320L205.7,320L205.7,320L137.1,320L137.1,320L68.6,320L68.6,320L0,320L0,320Z"></path></svg>